<?xml version="1.0" encoding="UTF-8"?>
<svg xmlns="http://www.w3.org/2000/svg" xmlns:xlink="http://www.w3.org/1999/xlink" width="30px" height="30px" viewBox="0 0 30 30" version="1.1">
<g id="surface1">
<path style=" stroke:none;fill-rule:nonzero;fill:rgb(0.392157%,48.627451%,93.333334%);fill-opacity:1;" d="M 0.597656 29.765625 L 14.847656 15.15625 C 14.9375 15.066406 14.953125 14.925781 14.878906 14.820312 C 14.011719 13.609375 12.414062 13.398438 11.820312 12.585938 C 10.066406 10.179688 9.621094 8.816406 8.867188 8.898438 C 8.8125 8.90625 8.765625 8.933594 8.730469 8.972656 L 3.582031 14.25 C 0.617188 17.285156 0.191406 23.96875 0.117188 29.570312 C 0.117188 29.683594 0.183594 29.789062 0.289062 29.832031 C 0.394531 29.875 0.515625 29.847656 0.597656 29.765625 Z M 0.597656 29.765625 "/>
<path style=" stroke:none;fill-rule:nonzero;fill:rgb(0%,67.843139%,27.450982%);fill-opacity:1;" d="M 29.761719 29.40625 L 15.152344 15.152344 C 15.0625 15.0625 14.921875 15.046875 14.816406 15.121094 C 13.605469 15.988281 13.398438 17.585938 12.585938 18.179688 C 10.175781 19.933594 8.8125 20.378906 8.898438 21.132812 C 8.90625 21.1875 8.929688 21.234375 8.96875 21.269531 L 14.246094 26.417969 C 17.28125 29.378906 23.96875 29.804688 29.566406 29.882812 C 29.679688 29.882812 29.78125 29.816406 29.824219 29.710938 C 29.867188 29.605469 29.84375 29.484375 29.761719 29.40625 Z M 29.761719 29.40625 "/>
<path style=" stroke:none;fill-rule:nonzero;fill:rgb(1.568628%,83.92157%,34.901962%);fill-opacity:1;" d="M 14.25 26.417969 C 12.589844 24.800781 11.820312 21.601562 15 15 C 9.832031 17.308594 8.023438 20.34375 8.914062 21.214844 Z M 14.25 26.417969 "/>
<path style=" stroke:none;fill-rule:nonzero;fill:rgb(0%,78.039217%,83.137256%);fill-opacity:1;" d="M 29.402344 0.238281 L 15.152344 14.847656 C 15.058594 14.9375 15.046875 15.078125 15.117188 15.183594 C 15.984375 16.394531 17.585938 16.601562 18.175781 17.414062 C 19.933594 19.824219 20.378906 21.1875 21.132812 21.101562 C 21.1875 21.09375 21.234375 21.070312 21.269531 21.03125 L 26.417969 15.753906 C 29.378906 12.71875 29.804688 6.03125 29.882812 0.433594 C 29.882812 0.316406 29.8125 0.214844 29.707031 0.171875 C 29.601562 0.128906 29.480469 0.15625 29.402344 0.238281 Z M 29.402344 0.238281 "/>
<path style=" stroke:none;fill-rule:nonzero;fill:rgb(6.666667%,88.235295%,93.333334%);fill-opacity:1;" d="M 26.421875 15.753906 C 24.804688 17.410156 21.601562 18.179688 15.003906 15 C 17.3125 20.167969 20.347656 21.980469 21.214844 21.089844 Z M 26.421875 15.753906 "/>
<path style=" stroke:none;fill-rule:nonzero;fill:rgb(89.411765%,22.352941%,12.941177%);fill-opacity:1;" d="M 0.234375 0.597656 L 14.84375 14.847656 C 14.933594 14.941406 15.074219 14.953125 15.179688 14.882812 C 16.390625 14.015625 16.601562 12.414062 17.414062 11.824219 C 19.820312 10.066406 21.183594 9.621094 21.101562 8.867188 C 21.09375 8.8125 21.066406 8.765625 21.027344 8.730469 L 15.75 3.582031 C 12.714844 0.621094 6.03125 0.195312 0.429688 0.117188 C 0.316406 0.117188 0.210938 0.183594 0.167969 0.292969 C 0.125 0.398438 0.152344 0.519531 0.234375 0.597656 Z M 0.234375 0.597656 "/>
<path style=" stroke:none;fill-rule:nonzero;fill:rgb(100%,45.882353%,34.117648%);fill-opacity:1;" d="M 15.753906 3.582031 C 17.410156 5.199219 18.179688 8.402344 15 15 C 20.167969 12.691406 21.980469 9.65625 21.089844 8.789062 Z M 15.753906 3.582031 "/>
<path style=" stroke:none;fill-rule:nonzero;fill:rgb(4.705882%,71.372551%,100%);fill-opacity:1;" d="M 3.582031 14.25 C 5.199219 12.589844 8.398438 11.824219 15 15 C 12.691406 9.835938 9.65625 8.023438 8.785156 8.914062 Z M 3.582031 14.25 "/>
<path style=" stroke:none;fill-rule:nonzero;fill:rgb(29.019609%,28.235295%,28.235295%);fill-opacity:1;" d="M 15.640625 15 C 15.640625 14.648438 15.355469 14.363281 15.003906 14.363281 C 14.648438 14.363281 14.363281 14.648438 14.363281 15 C 14.363281 15.351562 14.648438 15.636719 15.003906 15.636719 C 15.355469 15.636719 15.640625 15.351562 15.640625 15 Z M 15.640625 15 "/>
</g>
</svg>
