<?xml version="1.0" encoding="UTF-8"?>
<svg xmlns="http://www.w3.org/2000/svg" xmlns:xlink="http://www.w3.org/1999/xlink" width="26px" height="23px" viewBox="0 0 26 23" version="1.1">
<g id="surface1">
<path style=" stroke:none;fill-rule:nonzero;fill:rgb(38.039216%,85.490197%,98.431373%);fill-opacity:1;" d="M 15.265625 11.5 C 15.265625 10.226562 14.25 9.195312 13 9.195312 C 11.75 9.195312 10.734375 10.226562 10.734375 11.5 C 10.734375 12.773438 11.75 13.804688 13 13.804688 C 14.25 13.804688 15.265625 12.773438 15.265625 11.5 Z M 15.265625 11.5 "/>
<path style="fill:none;stroke-width:1;stroke-linecap:butt;stroke-linejoin:miter;stroke:rgb(38.039216%,85.490197%,98.431373%);stroke-opacity:1;stroke-miterlimit:4;" d="M 10.999274 0 C 10.999274 -2.318129 6.074173 -4.19835 0 -4.19835 C -6.074173 -4.19835 -10.999274 -2.318129 -10.999274 0 C -10.999274 2.318129 -6.074173 4.19835 0 4.19835 C 6.074173 4.19835 10.999274 2.318129 10.999274 0 Z M 10.999274 0 " transform="matrix(1.104831,0,0,1.123954,13,11.5)"/>
<path style="fill:none;stroke-width:1;stroke-linecap:butt;stroke-linejoin:miter;stroke:rgb(38.039216%,85.490197%,98.431373%);stroke-opacity:1;stroke-miterlimit:4;" d="M 11.000653 -0.00124511 C 10.999482 -2.32082 6.076561 -4.199584 0.00113113 -4.200309 C -6.074299 -4.201034 -11.000057 -2.321392 -11.000653 0.00124511 C -10.999482 2.32082 -6.076561 4.199584 -0.00113113 4.200309 C 6.074299 4.201034 11.000057 2.321392 11.000653 -0.00124511 Z M 11.000653 -0.00124511 " transform="matrix(0.552416,0.973372,-0.956812,0.561977,13,11.5)"/>
<path style="fill:none;stroke-width:1;stroke-linecap:butt;stroke-linejoin:miter;stroke:rgb(38.039216%,85.490197%,98.431373%);stroke-opacity:1;stroke-miterlimit:4;" d="M 11.000653 0.00124511 C 11.000057 -2.321392 6.074299 -4.201034 -0.00113113 -4.200309 C -6.076561 -4.199584 -10.999482 -2.32082 -11.000653 -0.00124511 C -11.000057 2.321392 -6.074299 4.201034 0.00113113 4.200309 C 6.076561 4.199584 10.999482 2.32082 11.000653 0.00124511 Z M 11.000653 0.00124511 " transform="matrix(-0.552416,0.973372,-0.956812,-0.561977,13,11.5)"/>
</g>
</svg>
